<?xml version="1.0" encoding="UTF-8" standalone="no"?>
<!-- Generator: Adobe Illustrator 16.0.0, SVG Export Plug-In . SVG Version: 6.00 Build 0)  -->

<svg
   xmlns:dc="http://purl.org/dc/elements/1.1/"
   xmlns:cc="http://creativecommons.org/ns#"
   xmlns:rdf="http://www.w3.org/1999/02/22-rdf-syntax-ns#"
   xmlns:svg="http://www.w3.org/2000/svg"
   xmlns="http://www.w3.org/2000/svg"
   xmlns:sodipodi="http://sodipodi.sourceforge.net/DTD/sodipodi-0.dtd"
   xmlns:inkscape="http://www.inkscape.org/namespaces/inkscape"
   version="1.1"
   id="Layer_1"
   x="0px"
   y="0px"
   width="300"
   height="300"
   viewBox="0 0 300 300"
   enable-background="new 0 0 300 300"
   xml:space="preserve"
   inkscape:version="0.48.4 r9939"
   sodipodi:docname="hyvedev-logo-icon-2-long.svg"><metadata
     id="metadata57"><rdf:RDF><cc:Work
         rdf:about=""><dc:format>image/svg+xml</dc:format><dc:type
           rdf:resource="http://purl.org/dc/dcmitype/StillImage" /></cc:Work></rdf:RDF></metadata><defs
     id="defs55" /><sodipodi:namedview
     pagecolor="#ffffff"
     bordercolor="#666666"
     borderopacity="1"
     objecttolerance="10"
     gridtolerance="10"
     guidetolerance="10"
     inkscape:pageopacity="0"
     inkscape:pageshadow="2"
     inkscape:window-width="640"
     inkscape:window-height="480"
     id="namedview53"
     showgrid="false"
     inkscape:zoom="0.78666667"
     inkscape:cx="150"
     inkscape:cy="150"
     inkscape:window-x="563"
     inkscape:window-y="292"
     inkscape:window-maximized="0"
     inkscape:current-layer="Layer_1" /><polygon
     points="223.533,103.471 218.454,122.425 199.499,127.506 185.622,113.63 190.702,94.673 209.657,89.594 "
     id="polygon3"
     style="opacity:0.7;fill:#fedf00"
     transform="matrix(2,0,0,2,-153.3495,-163.7545)" /><polygon
     points="179.955,157.524 166.166,190.833 135.047,203.506 109.425,177.884 121.833,146.5 155.481,133.069 "
     id="polygon5"
     style="opacity:0.7;fill:#d3d327"
     transform="matrix(2,0,0,2,-153.3495,-163.7545)" /><polygon
     points="162.833,115.167 179.955,108.457 196.043,114.289 199.209,117.454 205.025,133.069 198.166,150 172.587,160.568 152.455,140.438 "
     id="polygon7"
     style="opacity:0.7;fill:#d3d327"
     transform="matrix(2,0,0,2,-153.3495,-163.7545)" /><g
     id="Wings"
     transform="matrix(2,0,0,2,-153.3495,-163.7545)"><polygon
       enable-background="new    "
       points="196.044,114.29 136.833,171.828 83.166,171.828 89.833,150 105.5,137.162 179.955,108.457 "
       id="polygon10"
       style="opacity:0.8;fill:#98cd7a" /></g><g
     display="none"
     id="g12"
     style="display:none"><polygon
       display="inline"
       stroke-miterlimit="10"
       enable-background="new    "
       points="99.516,139.688 102.825,127.337 115.177,124.028 124.219,133.07 120.909,145.421 108.558,148.73 "
       id="polygon14"
       style="opacity:0.7;fill:none;stroke:#941a1d;stroke-miterlimit:10;stroke-dasharray:6, 3;display:inline" /><polygon
       display="inline"
       stroke-miterlimit="10"
       enable-background="new    "
       points="120.938,145.45 124.248,133.098 136.6,129.789 145.643,138.831 142.333,151.184 129.98,154.493 "
       id="polygon16"
       style="opacity:0.7;fill:none;stroke:#50130d;stroke-miterlimit:10;display:inline" /><polygon
       display="inline"
       stroke-miterlimit="10"
       enable-background="new    "
       points="105.278,161.109 108.589,148.758 120.94,145.448 129.983,154.49 126.673,166.842 114.321,170.152 "
       id="polygon18"
       style="opacity:0.7;fill:none;stroke:#391211;stroke-miterlimit:10;display:inline" /><polygon
       display="inline"
       stroke-miterlimit="10"
       enable-background="new    "
       points="111.011,182.503 114.321,170.15 126.672,166.842 135.715,175.884 132.405,188.234 120.053,191.546 "
       id="polygon20"
       style="opacity:0.7;fill:none;stroke:#231f20;stroke-miterlimit:10;display:inline" /><g
       display="inline"
       id="g22"
       style="opacity:0.7;display:inline"><g
         id="g24"><polyline
           stroke-miterlimit="10"
           points="117.298,126.148 115.177,124.026 115.953,121.128    "
           id="polyline26"
           style="fill:none;stroke:#be1622;stroke-miterlimit:10" /><polyline
           stroke-miterlimit="10"
           points="117.71,114.573 118.487,111.675 121.385,110.898    "
           id="polyline28"
           style="fill:none;stroke:#be1622;stroke-miterlimit:10" /><polyline
           stroke-miterlimit="10"
           points="127.94,109.142 130.838,108.365 132.959,110.486    "
           id="polyline30"
           style="fill:none;stroke:#be1622;stroke-miterlimit:10" /><polyline
           stroke-miterlimit="10"
           points="137.759,115.287 139.88,117.408 139.104,120.306    "
           id="polyline32"
           style="fill:none;stroke:#be1622;stroke-miterlimit:10" /><polyline
           stroke-miterlimit="10"
           points="137.348,126.861 136.571,129.759 133.673,130.536    "
           id="polyline34"
           style="fill:none;stroke:#501210;stroke-miterlimit:10" /><polyline
           stroke-miterlimit="10"
           points="127.117,132.293 124.219,133.069 122.098,130.948    "
           id="polyline36"
           style="fill:none;stroke:#68100d;stroke-miterlimit:10" /></g></g><polygon
       display="inline"
       stroke-miterlimit="10"
       enable-background="new    "
       points="93.472,118.507 96.782,106.155 109.134,102.846 118.177,111.888 114.866,124.24 102.515,127.55 "
       id="polygon38"
       style="opacity:0.7;fill:none;stroke:#be1622;stroke-miterlimit:10;stroke-dasharray:3, 3;display:inline" /><polygon
       display="inline"
       stroke-miterlimit="10"
       enable-background="new    "
       points="77.813,134.167 81.123,121.815 93.475,118.505 102.517,127.547 99.208,139.899 86.855,143.209 "
       id="polygon40"
       style="opacity:0.7;fill:none;stroke:#be1622;stroke-miterlimit:10;stroke-dasharray:3, 6;display:inline" /><polygon
       display="inline"
       points="104.35,128.551 61.046,145.209 24.967,116.037 32.193,70.205 75.497,53.546 111.575,82.719 "
       id="polygon42"
       style="fill:#ffffff;display:inline" /></g><g
     display="none"
     id="g44"
     style="display:none"><rect
       x="188.088"
       y="105.142"
       transform="matrix(0.724,-0.6898,0.6898,0.724,-25.5168,166.7957)"
       display="inline"
       width="15.211"
       height="20.291"
       id="rect46"
       style="fill:#e30613;display:inline" /><rect
       x="152.27499"
       y="137.04401"
       transform="matrix(0.7241,-0.6897,0.6897,0.7241,-61.257,152.4283)"
       display="inline"
       width="15.211"
       height="31.462"
       id="rect48"
       style="fill:#e30613;display:inline" /></g><g
     id="Wings_1_"
     transform="matrix(2,0,0,2,-153.3495,-163.7545)"><polygon
       enable-background="new    "
       points="204.578,133.126 175.873,207.581 163.035,223.248 141.207,229.915 141.207,176.248 198.746,117.037 "
       id="polygon51"
       style="opacity:0.8;fill:#98cd7a" /></g></svg>