<?xml version="1.0" encoding="utf-8"?>
<!-- Generator: Adobe Illustrator 16.0.0, SVG Export Plug-In . SVG Version: 6.00 Build 0)  -->
<!DOCTYPE svg PUBLIC "-//W3C//DTD SVG 1.1//EN" "http://www.w3.org/Graphics/SVG/1.1/DTD/svg11.dtd">
<svg version="1.1" id="Layer_1" xmlns="http://www.w3.org/2000/svg" xmlns:xlink="http://www.w3.org/1999/xlink" x="0px" y="0px"
	 width="300px" height="300px" viewBox="0 0 300 300" enable-background="new 0 0 300 300" xml:space="preserve">
<polygon opacity="0.8" fill="#FFDD04" enable-background="new    " points="52.825,196.582 70.337,128.892 138.022,111.385 
	188.202,161.561 170.688,229.25 103.003,246.758 "/>
<polygon opacity="0.8" fill="#FFDD04" enable-background="new    " points="217.492,58.425 222.754,28.758 252.424,23.493 
	276.825,47.896 271.562,77.564 241.893,82.828 "/>
<polygon opacity="0.8" fill="#FFDD04" enable-background="new    " points="143.613,116.973 157.223,64.369 209.826,50.762 
	248.823,89.758 235.213,142.362 182.61,155.969 "/>
<polygon opacity="0.8" fill="#BACFED" enable-background="new    " points="114.341,275.443 130.973,209.686 248.837,89.771 
	235.213,142.362 184.359,257.414 151.125,276.506 "/>
<polygon opacity="0.8" fill="#BACFED" enable-background="new    " points="23.175,148.556 42.267,115.322 157.319,64.469 
	209.91,50.845 89.996,168.709 24.239,185.34 "/>
</svg>
