<?xml version="1.0" encoding="utf-8"?>
<!-- Generator: Adobe Illustrator 16.0.0, SVG Export Plug-In . SVG Version: 6.00 Build 0)  -->
<!DOCTYPE svg PUBLIC "-//W3C//DTD SVG 1.1//EN" "http://www.w3.org/Graphics/SVG/1.1/DTD/svg11.dtd">
<svg version="1.1" xmlns="http://www.w3.org/2000/svg" xmlns:xlink="http://www.w3.org/1999/xlink" x="0px" y="0px" width="300px"
	 height="300px" viewBox="0 0 300 300" enable-background="new 0 0 300 300" xml:space="preserve">
<g id="Body">
	<polygon fill="#E30613" points="98.702,186.37 108.9,148.313 146.956,138.117 174.814,165.976 164.618,204.032 126.561,214.229 	
		"/>
	<polygon fill="#E30613" points="149.214,141.79 157.24,111.834 187.195,103.808 209.124,125.736 201.098,155.691 171.143,163.718 	
		"/>
	<polygon fill="#E30613" points="190.516,108.541 195.596,89.584 214.551,84.505 228.427,98.382 223.348,117.336 204.392,122.417 	
		"/>
</g>
<g id="Wings">
	<polygon opacity="0.8" fill="#BACFED" enable-background="new    " points="66.021,166.934 78.391,145.401 152.936,112.452 
		187.012,103.625 109.316,179.991 66.71,190.768 	"/>
	<polygon opacity="0.8" fill="#BACFED" enable-background="new    " points="122.165,246.221 132.94,203.616 209.308,125.92 
		200.48,159.996 167.531,234.541 145.998,246.91 	"/>
</g>
<g id="Mesh">
	<polygon opacity="0.7" fill="none" stroke="#BE1622" stroke-miterlimit="10" stroke-dasharray="6,3" points="99.516,139.688 
		102.825,127.337 115.177,124.028 124.219,133.07 120.909,145.421 108.558,148.73 	"/>
	<polygon opacity="0.7" fill="none" stroke="#BE1622" stroke-miterlimit="10" points="120.938,145.45 124.248,133.098 
		136.6,129.789 145.643,138.831 142.333,151.183 129.98,154.493 	"/>
	<polygon opacity="0.7" fill="none" stroke="#BE1622" stroke-miterlimit="10" points="105.278,161.109 108.589,148.758 
		120.94,145.448 129.983,154.49 126.673,166.842 114.321,170.152 	"/>
	<polygon opacity="0.7" fill="none" stroke="#BE1622" stroke-miterlimit="10" points="111.011,182.503 114.321,170.15 
		126.672,166.842 135.715,175.884 132.405,188.235 120.053,191.546 	"/>
	<g opacity="0.7">
		<g>
			<polyline fill="none" stroke="#BE1622" stroke-miterlimit="10" points="117.298,126.148 115.177,124.026 115.953,121.128 			"/>
			<polyline fill="none" stroke="#BE1622" stroke-miterlimit="10" points="117.71,114.573 118.487,111.675 121.385,110.898 			"/>
			<polyline fill="none" stroke="#BE1622" stroke-miterlimit="10" points="127.94,109.142 130.838,108.365 132.959,110.486 			"/>
			<polyline fill="none" stroke="#BE1622" stroke-miterlimit="10" points="137.759,115.287 139.88,117.408 139.104,120.306 			"/>
			<polyline fill="none" stroke="#BE1622" stroke-miterlimit="10" points="137.348,126.861 136.571,129.759 133.673,130.536 			"/>
			<polyline fill="none" stroke="#BE1622" stroke-miterlimit="10" points="127.117,132.293 124.219,133.069 122.098,130.948 			"/>
		</g>
	</g>
	<polygon opacity="0.7" fill="none" stroke="#BE1622" stroke-miterlimit="10" stroke-dasharray="3,3" points="93.472,118.507 
		96.782,106.155 109.134,102.846 118.177,111.888 114.866,124.24 102.515,127.55 	"/>
	<polygon opacity="0.7" fill="none" stroke="#BE1622" stroke-miterlimit="10" stroke-dasharray="3,6" points="77.813,134.167 
		81.123,121.815 93.475,118.505 102.517,127.547 99.208,139.899 86.855,143.209 	"/>
	<polygon fill="#FFFFFF" points="104.35,128.551 61.046,145.209 24.967,116.037 32.193,70.205 75.497,53.546 111.575,82.719 	"/>
</g>
</svg>
