<?xml version="1.0" encoding="utf-8"?>
<!-- Generator: Adobe Illustrator 16.0.0, SVG Export Plug-In . SVG Version: 6.00 Build 0)  -->
<!DOCTYPE svg PUBLIC "-//W3C//DTD SVG 1.1//EN" "http://www.w3.org/Graphics/SVG/1.1/DTD/svg11.dtd">
<svg version="1.1" id="Layer_1" xmlns="http://www.w3.org/2000/svg" xmlns:xlink="http://www.w3.org/1999/xlink" x="0px" y="0px"
	 width="300px" height="300px" viewBox="0 0 300 300" enable-background="new 0 0 300 300" xml:space="preserve">
<polygon opacity="0.8" fill="#FFDD04" enable-background="new    " points="63.606,182.14 82.856,107.734 157.26,88.489 
	212.418,143.646 193.166,218.052 118.764,237.298 "/>
<polygon opacity="0.8" fill="#FFDD04" enable-background="new    " points="228.135,47.633 233.396,17.966 263.066,12.701 
	287.469,37.104 282.204,66.772 252.535,72.035 "/>
<polygon opacity="0.8" fill="#FFDD04" enable-background="new    " points="156.039,105.133 169.648,52.529 222.252,38.922 
	261.249,77.918 247.638,130.522 195.035,144.129 "/>
<polygon opacity="0.8" fill="#BACFED" enable-background="new    " points="12.532,148.581 23.971,120.18 156.303,52.59 
	228.135,47.833 85.479,169.804 42.173,182.538 "/>
<polygon opacity="0.8" fill="#BACFED" enable-background="new    " points="118.167,257.706 130.885,214.466 252.663,72.035 
	247.914,143.752 180.429,275.88 152.07,287.3 "/>
</svg>
